<?xml version="1.0" encoding="iso-8859-1"?>
<!-- Generator: Adobe Illustrator 17.0.0, SVG Export Plug-In . SVG Version: 6.00 Build 0)  -->
<!DOCTYPE svg PUBLIC "-//W3C//DTD SVG 1.1//EN" "http://www.w3.org/Graphics/SVG/1.1/DTD/svg11.dtd">
<svg version="1.1" id="Layer_1" xmlns="http://www.w3.org/2000/svg" xmlns:xlink="http://www.w3.org/1999/xlink" x="0px" y="0px"
	 width="612px" height="792px" viewBox="0 0 612 792" style="enable-background:new 0 0 612 792;" xml:space="preserve">
<g>
	<path d="M63.16,288.8v0.01c4.88,4.88,10.77,7.33,17.67,7.33v-0.02C73.93,296.12,68.04,293.68,63.16,288.8z"/>
</g>
<g>
	<path style="fill:#FFFFFF;stroke:#000000;stroke-miterlimit:10;" d="M188.14,269.69c-0.04,0.57-0.06,1.14-0.06,1.73
		s0.02,1.16,0.06,1.73c0.02-0.57,0.03-1.15,0.03-1.73S188.16,270.26,188.14,269.69z"/>
</g>
<g>
	<path style="fill:#FFFFFF;stroke:#000000;stroke-miterlimit:10;" d="M169.36,269.69c-0.02,0.57-0.03,1.15-0.03,1.73
		s0.01,1.16,0.03,1.73c0.04-0.57,0.06-1.14,0.06-1.73S169.4,270.26,169.36,269.69z"/>
	<path style="fill:#FFFFFF;stroke:#000000;stroke-miterlimit:10;" d="M230.76,289.09c-4.88,4.89-10.78,7.33-17.68,7.33
		c-6.9,0-12.79-2.44-17.67-7.33c-4.48-4.47-6.9-9.78-7.27-15.94c-0.04-0.57-0.06-1.14-0.06-1.73s0.02-1.16,0.06-1.73
		c0.37-6.16,2.79-11.48,7.27-15.95c4.88-4.88,10.77-7.32,17.67-7.32c6.9,0,12.8,2.44,17.68,7.32l0.1,0.1l13.28-13.28l-0.1-0.1
		c-8.53-8.53-18.85-12.79-30.96-12.79c-12.11,0-22.43,4.26-30.95,12.79c-1.22,1.21-2.34,2.46-3.38,3.75
		c-1.04-1.29-2.16-2.54-3.38-3.75c-8.53-8.53-18.84-12.79-30.95-12.79c-9.44,0-17.78,2.57-25,7.71v-45.63l-18.75,12.92v68.75
		c0,12.11,4.26,22.43,12.79,30.95c8.53,8.53,18.85,12.8,30.96,12.8c12.11,0,22.42-4.27,30.95-12.8c1.22-1.21,2.34-2.46,3.38-3.75
		c1.04,1.29,2.16,2.54,3.38,3.75c8.52,8.53,18.84,12.8,30.95,12.8c12.11,0,22.43-4.27,30.96-12.8l0.1-0.09l-13.28-13.29
		L230.76,289.09z M162.09,289.09c-4.88,4.89-10.77,7.33-17.67,7.33c-6.9,0-12.8-2.44-17.68-7.33c-4.88-4.88-7.32-10.77-7.32-17.67
		s2.44-12.8,7.32-17.68s10.78-7.32,17.68-7.32c6.9,0,12.79,2.44,17.67,7.32c4.48,4.47,6.9,9.79,7.27,15.95
		c0.04,0.57,0.06,1.14,0.06,1.73s-0.02,1.16-0.06,1.73C168.99,279.31,166.57,284.62,162.09,289.09z"/>
</g>
<g>
	<path style="fill:#FFFFFF;stroke:#000000;stroke-miterlimit:10;" d="M109.62,304.13c-8.53,8.53-16.68,10.76-28.79,10.76
		c-12.11,0-22.43-4.27-30.95-12.8v-0.01c-4.54-4.53-7.87-9.57-9.99-15.11c-0.25-0.65-0.48-1.31-0.7-1.97
		c-1.41-4.32-2.11-8.94-2.11-13.86v-68.77l18.75-12.33v37.33h25v18.75h-25v25.02c0,6.9,2.44,12.78,7.33,17.66v0.01
		c4.88,4.88,10.77,7.33,17.67,7.33c6.9,0,11.93-1.62,16.81-6.5L109.62,304.13z"/>
</g>
<path d="M80.875,245.75"/>
</svg>
