<?xml version="1.0" encoding="utf-8"?>
<!-- Generator: Adobe Illustrator 17.0.0, SVG Export Plug-In . SVG Version: 6.00 Build 0)  -->
<!DOCTYPE svg PUBLIC "-//W3C//DTD SVG 1.1//EN" "http://www.w3.org/Graphics/SVG/1.1/DTD/svg11.dtd">
<svg version="1.1" id="Layer_1" xmlns="http://www.w3.org/2000/svg" xmlns:xlink="http://www.w3.org/1999/xlink" x="0px" y="0px"
	 width="612px" height="792px" viewBox="0 0 612 792" enable-background="new 0 0 612 792" xml:space="preserve">
<g>
	<path d="M63.16,288.8v0.01c4.88,4.88,10.77,7.33,17.67,7.33v-0.02C73.93,296.12,68.04,293.68,63.16,288.8z"/>
</g>
<g>
	<path fill="#FFFFFF" stroke="#000000" stroke-miterlimit="10" d="M119.417,235.381c7.227-5.142,15.56-7.715,25-7.715
		c12.109,0,22.427,4.265,30.957,12.793c8.528,8.53,12.793,18.848,12.793,30.957s-4.265,22.429-12.793,30.957
		c-8.53,8.53-18.848,12.793-30.957,12.793s-22.429-4.263-30.957-12.793c-8.53-8.528-12.793-18.848-12.793-30.957v-68.75
		l18.75-12.917V235.381z M162.092,289.092c4.883-4.883,7.324-10.774,7.324-17.676c0-6.9-2.441-12.793-7.324-17.676
		s-10.776-7.324-17.676-7.324c-6.901,0-12.793,2.441-17.676,7.324s-7.324,10.776-7.324,17.676c0,6.901,2.441,12.793,7.324,17.676
		s10.774,7.324,17.676,7.324C151.316,296.417,157.209,293.975,162.092,289.092z"/>
</g>
<g>
	<path fill="#FFFFFF" stroke="#000000" stroke-miterlimit="10" d="M244.041,302.374c-8.53,8.53-18.848,12.793-30.957,12.793
		s-22.429-4.263-30.957-12.793c-8.53-8.528-12.793-18.848-12.793-30.957s4.263-22.427,12.793-30.957
		c8.528-8.528,18.848-12.793,30.957-12.793s22.427,4.265,30.957,12.793l0.098,0.098l-13.281,13.281l-0.098-0.098
		c-4.883-4.883-10.776-7.324-17.676-7.324c-6.901,0-12.793,2.441-17.676,7.324s-7.324,10.776-7.324,17.676
		c0,6.901,2.441,12.793,7.324,17.676s10.774,7.324,17.676,7.324c6.9,0,12.793-2.441,17.676-7.324l0.098-0.098l13.281,13.281
		L244.041,302.374z"/>
</g>
<g>
	<path fill="#FFFFFF" stroke="#000000" stroke-miterlimit="10" d="M109.62,304.13c-8.53,8.53-16.68,10.76-28.79,10.76
		c-12.11,0-22.43-4.27-30.95-12.8v-0.01c-4.54-4.53-7.87-9.57-9.99-15.11c-0.25-0.65-0.48-1.31-0.7-1.97
		c-1.41-4.32-2.11-8.94-2.11-13.86v-68.77l18.75-12.33v37.33h25v18.75h-25v25.02c0,6.9,2.44,12.78,7.33,17.66v0.01
		c4.88,4.88,10.77,7.33,17.67,7.33c6.9,0,11.93-1.62,16.81-6.5L109.62,304.13z"/>
</g>
<path d="M80.875,245.75"/>
</svg>
