<?xml version="1.0" encoding="iso-8859-1"?>
<!-- Generator: Adobe Illustrator 17.0.0, SVG Export Plug-In . SVG Version: 6.00 Build 0)  -->
<!DOCTYPE svg PUBLIC "-//W3C//DTD SVG 1.1//EN" "http://www.w3.org/Graphics/SVG/1.1/DTD/svg11.dtd">
<svg version="1.1" id="Layer_1" xmlns="http://www.w3.org/2000/svg" xmlns:xlink="http://www.w3.org/1999/xlink" x="0px" y="0px"
	 width="63px" height="50.667px" viewBox="0 0 63 50.667" style="enable-background:new 0 0 63 50.667;" xml:space="preserve">
<g>
	<line style="fill:none;stroke:#000000;stroke-width:6;stroke-miterlimit:10;" x1="5.778" y1="29.667" x2="58.09" y2="29.667"/>
	<line x1="5.778" y1="29.667" x2="58.09" y2="29.667"/>
	
		<line style="fill:none;stroke:#000000;stroke-width:6;stroke-linecap:round;stroke-miterlimit:10;" x1="5.778" y1="29.667" x2="58.09" y2="29.667"/>
</g>
<line style="fill:none;stroke:#000000;stroke-width:6;stroke-linecap:round;stroke-miterlimit:10;" x1="58.591" y1="45.333" x2="6.279" y2="45.333"/>
<polygon style="stroke:#000000;stroke-miterlimit:10;" points="10.087,2.03 12.179,6.267 16.855,6.947 13.471,10.245 14.27,14.903 
	10.087,12.704 5.905,14.903 6.704,10.245 3.32,6.947 7.996,6.267 "/>
<polygon style="stroke:#000000;stroke-miterlimit:10;" points="31.934,2.03 34.025,6.267 38.702,6.947 35.318,10.245 36.117,14.903 
	31.934,12.704 27.751,14.903 28.55,10.245 25.166,6.947 29.843,6.267 "/>
<polygon style="stroke:#000000;stroke-miterlimit:10;" points="53.606,2.03 55.697,6.267 60.373,6.947 56.989,10.245 57.788,14.903 
	53.606,12.704 49.423,14.903 50.222,10.245 46.838,6.947 51.514,6.267 "/>
</svg>
