<?xml version="1.0" encoding="iso-8859-1"?>
<!-- Generator: Adobe Illustrator 17.0.0, SVG Export Plug-In . SVG Version: 6.00 Build 0)  -->
<!DOCTYPE svg PUBLIC "-//W3C//DTD SVG 1.1//EN" "http://www.w3.org/Graphics/SVG/1.1/DTD/svg11.dtd">
<svg version="1.1" id="Layer_1" xmlns="http://www.w3.org/2000/svg" xmlns:xlink="http://www.w3.org/1999/xlink" x="0px" y="0px"
	 width="612px" height="792px" viewBox="0 0 612 792" style="enable-background:new 0 0 612 792;" xml:space="preserve">
<g>
	
		<line style="fill:none;stroke:#000000;stroke-width:6;stroke-miterlimit:10;" x1="292.445" y1="235.336" x2="344.756" y2="235.336"/>
	<line x1="292.445" y1="235.336" x2="344.756" y2="235.336"/>
	
		<line style="fill:none;stroke:#000000;stroke-width:6;stroke-linecap:round;stroke-miterlimit:10;" x1="292.445" y1="235.336" x2="344.756" y2="235.336"/>
</g>
<line style="fill:none;stroke:#000000;stroke-width:6;stroke-linecap:round;stroke-miterlimit:10;" x1="345.257" y1="248.363" x2="292.946" y2="248.363"/>
<polygon style="stroke:#000000;stroke-miterlimit:10;" points="296.754,210.363 298.845,214.601 303.522,215.28 300.138,218.579 
	300.937,223.236 296.754,221.037 292.571,223.236 293.37,218.579 289.986,215.28 294.663,214.601 "/>
<polygon style="stroke:#000000;stroke-miterlimit:10;" points="318.601,210.363 320.692,214.601 325.368,215.28 321.984,218.579 
	322.783,223.236 318.601,221.037 314.418,223.236 315.217,218.579 311.833,215.28 316.509,214.601 "/>
<polygon style="stroke:#000000;stroke-miterlimit:10;" points="340.272,210.363 342.363,214.601 347.04,215.28 343.656,218.579 
	344.455,223.236 340.272,221.037 336.09,223.236 336.888,218.579 333.505,215.28 338.181,214.601 "/>
</svg>
